<svg width="20" height="17" viewBox="0 0 20 17" fill="none" xmlns="http://www.w3.org/2000/svg">
<path fill-rule="evenodd" clip-rule="evenodd" d="M8.30497 16.6137C8.13703 16.7538 7.94312 16.8594 7.73433 16.9245C7.52554 16.9896 7.30597 17.013 7.08816 16.9932C6.87035 16.9734 6.65857 16.9109 6.46494 16.8092C6.2713 16.7075 6.0996 16.5687 5.95964 16.4006L0.411747 9.74248C0.265605 9.57543 0.154349 9.38084 0.0845213 9.17016C0.0146939 8.95948 -0.0122936 8.73696 0.00514684 8.51569C0.0225873 8.29443 0.0841035 8.07889 0.186076 7.88174C0.288048 7.6846 0.428417 7.50985 0.598925 7.36776C0.769434 7.22567 0.966638 7.11911 1.17893 7.05436C1.39123 6.98961 1.61433 6.96797 1.83512 6.99072C2.0559 7.01346 2.26991 7.08014 2.46454 7.18681C2.65918 7.29348 2.83052 7.43801 2.96847 7.61188L8.51804 14.27C8.80045 14.6091 8.93665 15.0465 8.8967 15.486C8.85674 15.9254 8.64391 16.3311 8.30497 16.6137Z" fill="#070033"/>
<path fill-rule="evenodd" clip-rule="evenodd" d="M8.30497 0.740676C8.64391 1.02328 8.85674 1.42892 8.8967 1.8684C8.93665 2.30788 8.80045 2.74525 8.51804 3.08434L2.96847 9.74248C2.83052 9.91635 2.65918 10.0609 2.46454 10.1676C2.26991 10.2742 2.0559 10.3409 1.83512 10.3636C1.61433 10.3864 1.39123 10.3647 1.17893 10.3C0.966638 10.2352 0.769434 10.1287 0.598925 9.9866C0.428417 9.84451 0.288048 9.66976 0.186076 9.47262C0.0841035 9.27548 0.0225873 9.05993 0.00514684 8.83867C-0.0122936 8.6174 0.0146939 8.39488 0.0845213 8.1842C0.154349 7.97352 0.265605 7.77893 0.411747 7.61188L5.95964 0.953735C6.0996 0.785671 6.2713 0.646835 6.46494 0.545162C6.65857 0.443489 6.87035 0.380973 7.08816 0.361186C7.30597 0.341399 7.52554 0.364731 7.73433 0.429846C7.94312 0.494961 8.13703 0.600583 8.30497 0.740676Z" fill="#070033"/>
<path fill-rule="evenodd" clip-rule="evenodd" d="M3.35474 8.67717C3.35474 8.23571 3.53011 7.81233 3.84227 7.50017C4.15443 7.188 4.57781 7.01263 5.01927 7.01263L18.3356 7.01263C18.777 7.01263 19.2004 7.188 19.5126 7.50017C19.8247 7.81233 20.0001 8.23571 20.0001 8.67717C20.0001 9.11863 19.8247 9.54201 19.5126 9.85417C19.2004 10.1663 18.777 10.3417 18.3356 10.3417L5.01927 10.3417C4.57781 10.3417 4.15443 10.1663 3.84227 9.85417C3.53011 9.54201 3.35474 9.11863 3.35474 8.67717Z" fill="#070033"/>
</svg>
