<svg width="26" height="26" viewBox="0 0 26 26" fill="none" xmlns="http://www.w3.org/2000/svg">
<path d="M13 25C19.6274 25 25 19.6274 25 13C25 6.37258 19.6274 1 13 1C6.37258 1 1 6.37258 1 13C1 19.6274 6.37258 25 13 25Z" stroke="white" stroke-width="2" stroke-linecap="round" stroke-linejoin="round"/>
<path d="M12.076 9.98533L17 9L16.0147 13.924C15.9115 14.4401 15.658 14.9141 15.2859 15.2864C14.9139 15.6587 14.44 15.9125 13.924 16.016L9 17L9.98533 12.076C10.0887 11.5601 10.3424 11.0864 10.7144 10.7144C11.0864 10.3424 11.5601 10.0887 12.076 9.98533Z" stroke="white" stroke-width="2" stroke-linecap="round" stroke-linejoin="round"/>
</svg>
