<svg width="23" height="24" viewBox="0 0 23 24" fill="none" xmlns="http://www.w3.org/2000/svg">
<path d="M1 19.875C1 18.4826 1.55312 17.1473 2.53769 16.1627C3.52226 15.1781 4.85761 14.625 6.25 14.625H16.75C18.1424 14.625 19.4777 15.1781 20.4623 16.1627C21.4469 17.1473 22 18.4826 22 19.875C22 20.5712 21.7234 21.2389 21.2312 21.7312C20.7389 22.2234 20.0712 22.5 19.375 22.5H3.625C2.92881 22.5 2.26113 22.2234 1.76884 21.7312C1.27656 21.2389 1 20.5712 1 19.875Z" stroke="white" stroke-width="1.96875" stroke-linejoin="round"/>
<path d="M11.5 9.375C13.6746 9.375 15.4375 7.61212 15.4375 5.4375C15.4375 3.26288 13.6746 1.5 11.5 1.5C9.32538 1.5 7.5625 3.26288 7.5625 5.4375C7.5625 7.61212 9.32538 9.375 11.5 9.375Z" stroke="white" stroke-width="1.96875"/>
</svg>
